<svg width="117" height="49" viewBox="0 0 117 49" fill="none" xmlns="http://www.w3.org/2000/svg">
<path d="M9.88 39.28C8.09333 39.28 6.37333 39.0533 4.72 38.6C3.09333 38.12 1.8 37.5467 0.84 36.88L2.76 33.08C3.72 33.6933 4.86667 34.2 6.2 34.6C7.53333 35 8.86667 35.2 10.2 35.2C11.7733 35.2 12.9067 34.9867 13.6 34.56C14.32 34.1333 14.68 33.56 14.68 32.84C14.68 32.2533 14.44 31.8133 13.96 31.52C13.48 31.2 12.8533 30.96 12.08 30.8C11.3067 30.64 10.44 30.4933 9.48 30.36C8.54667 30.2267 7.6 30.0533 6.64 29.84C5.70667 29.6 4.85333 29.2667 4.08 28.84C3.30667 28.3867 2.68 27.7867 2.2 27.04C1.72 26.2933 1.48 25.3067 1.48 24.08C1.48 22.72 1.86667 21.5467 2.64 20.56C3.41333 19.5467 4.49333 18.7733 5.88 18.24C7.29333 17.68 8.96 17.4 10.88 17.4C12.32 17.4 13.7733 17.56 15.24 17.88C16.7067 18.2 17.92 18.6533 18.88 19.24L16.96 23.04C15.9467 22.4267 14.92 22.0133 13.88 21.8C12.8667 21.56 11.8533 21.44 10.84 21.44C9.32 21.44 8.18667 21.6667 7.44 22.12C6.72 22.5733 6.36 23.1467 6.36 23.84C6.36 24.48 6.6 24.96 7.08 25.28C7.56 25.6 8.18667 25.8533 8.96 26.04C9.73333 26.2267 10.5867 26.3867 11.52 26.52C12.48 26.6267 13.4267 26.8 14.36 27.04C15.2933 27.28 16.1467 27.6133 16.92 28.04C17.72 28.44 18.36 29.0133 18.84 29.76C19.32 30.5067 19.56 31.48 19.56 32.68C19.56 34.0133 19.16 35.1733 18.36 36.16C17.5867 37.1467 16.48 37.92 15.04 38.48C13.6 39.0133 11.88 39.28 9.88 39.28ZM35.9859 17.4C37.6926 17.4 39.2126 17.7333 40.5459 18.4C41.9059 19.0667 42.9726 20.0933 43.7459 21.48C44.5193 22.84 44.9059 24.6 44.9059 26.76V39H39.9059V27.4C39.9059 25.5067 39.4526 24.0933 38.5459 23.16C37.6659 22.2267 36.4259 21.76 34.8259 21.76C33.6526 21.76 32.6126 22 31.7059 22.48C30.7993 22.96 30.0926 23.68 29.5859 24.64C29.1059 25.5733 28.8659 26.76 28.8659 28.2V39H23.8659V9.32H28.8659V23.4L27.7859 21.64C28.5326 20.28 29.6126 19.24 31.0259 18.52C32.4659 17.7733 34.1193 17.4 35.9859 17.4ZM64.4088 39V34.68L64.1288 33.76V26.2C64.1288 24.7333 63.6888 23.6 62.8088 22.8C61.9288 21.9733 60.5954 21.56 58.8088 21.56C57.6088 21.56 56.4221 21.7467 55.2488 22.12C54.1021 22.4933 53.1288 23.0133 52.3288 23.68L50.3688 20.04C51.5154 19.16 52.8754 18.5067 54.4488 18.08C56.0488 17.6267 57.7021 17.4 59.4088 17.4C62.5021 17.4 64.8888 18.1467 66.5688 19.64C68.2754 21.1067 69.1288 23.3867 69.1288 26.48V39H64.4088ZM57.6888 39.28C56.0888 39.28 54.6888 39.0133 53.4888 38.48C52.2888 37.92 51.3554 37.16 50.6888 36.2C50.0488 35.2133 49.7288 34.1067 49.7288 32.88C49.7288 31.68 50.0088 30.6 50.5688 29.64C51.1554 28.68 52.1021 27.92 53.4088 27.36C54.7154 26.8 56.4488 26.52 58.6088 26.52H64.8088V29.84H58.9688C57.2621 29.84 56.1154 30.12 55.5288 30.68C54.9421 31.2133 54.6488 31.88 54.6488 32.68C54.6488 33.5867 55.0088 34.3067 55.7288 34.84C56.4488 35.3733 57.4488 35.64 58.7288 35.64C59.9554 35.64 61.0488 35.36 62.0088 34.8C62.9954 34.24 63.7021 33.4133 64.1288 32.32L64.9688 35.32C64.4888 36.5733 63.6221 37.5467 62.3688 38.24C61.1421 38.9333 59.5821 39.28 57.6888 39.28ZM87.6656 17.4C89.3723 17.4 90.8923 17.7333 92.2256 18.4C93.5856 19.0667 94.6523 20.0933 95.4256 21.48C96.199 22.84 96.5856 24.6 96.5856 26.76V39H91.5856V27.4C91.5856 25.5067 91.1323 24.0933 90.2256 23.16C89.3456 22.2267 88.1056 21.76 86.5056 21.76C85.3323 21.76 84.2923 22 83.3856 22.48C82.479 22.96 81.7723 23.68 81.2656 24.64C80.7856 25.5733 80.5456 26.76 80.5456 28.2V39H75.5456V17.64H80.3056V23.4L79.4656 21.64C80.2123 20.28 81.2923 19.24 82.7056 18.52C84.1456 17.7733 85.799 17.4 87.6656 17.4ZM110.968 39.28C108.622 39.28 106.808 38.68 105.528 37.48C104.248 36.2533 103.608 34.4533 103.608 32.08V12.92H108.608V31.96C108.608 32.9733 108.862 33.76 109.368 34.32C109.902 34.88 110.635 35.16 111.568 35.16C112.688 35.16 113.622 34.8667 114.368 34.28L115.768 37.84C115.182 38.32 114.462 38.68 113.608 38.92C112.755 39.16 111.875 39.28 110.968 39.28ZM100.088 21.8V17.8H114.328V21.8H100.088Z" fill="black"/>
<rect y="8" width="29" height="5" fill="black"/>
</svg>
